<svg width="1920" height="100" viewBox="0 0 1920 100" fill="none" xmlns="http://www.w3.org/2000/svg">
<path d="M-10 29.1485C-10 34.4183 -8.73745 39.3038 -6.21234 43.8051C-3.57745 48.1966 -0.00935936 51.7098 4.49192 54.3447C8.99319 56.9796 14.0434 58.297 19.6426 58.297C25.3515 58.297 30.4017 56.9796 34.7932 54.3447C39.2945 51.7098 42.8077 48.1966 45.3328 43.8051C47.8579 39.3038 49.1204 34.4183 49.1204 29.1485C49.1204 23.6591 47.8579 18.7187 45.3328 14.3272C42.8077 9.93575 39.2945 6.47745 34.7932 3.95234C30.4017 1.31745 25.3515 0 19.6426 0C14.0434 0 8.99319 1.31745 4.49192 3.95234C-0.00935936 6.47745 -3.57745 9.93575 -6.21234 14.3272C-8.73745 18.7187 -10 23.6591 -10 29.1485ZM7.78553 29.1485C7.78553 26.843 8.27958 24.757 9.26766 22.8906C10.2557 21.0243 11.6281 19.5421 13.3847 18.4443C15.1413 17.2366 17.2272 16.6328 19.6426 16.6328C22.0579 16.6328 24.0889 17.2366 25.7357 18.4443C27.4923 19.5421 28.8647 21.0243 29.8528 22.8906C30.8409 24.757 31.3349 26.843 31.3349 29.1485C31.3349 31.3442 30.8409 33.4302 29.8528 35.4064C28.8647 37.2728 27.4923 38.7549 25.7357 39.8528C24.0889 40.9506 22.0579 41.4996 19.6426 41.4996C17.2272 41.4996 15.1413 40.9506 13.3847 39.8528C11.6281 38.7549 10.2557 37.2728 9.26766 35.4064C8.27958 33.4302 7.78553 31.3442 7.78553 29.1485ZM64.9298 91.3979C64.9298 96.7774 66.1923 101.663 68.7174 106.054C71.3523 110.446 74.9204 113.959 79.4217 116.594C83.923 119.229 88.9732 120.546 94.5723 120.546C100.281 120.546 105.331 119.229 109.723 116.594C114.224 113.959 117.737 110.446 120.263 106.054C122.788 101.663 124.05 96.7774 124.05 91.3979C124.05 86.0183 122.788 81.1328 120.263 76.7413C117.737 72.24 114.224 68.7268 109.723 66.2017C105.331 63.5668 100.281 62.2494 94.5723 62.2494C88.9732 62.2494 83.923 63.5668 79.4217 66.2017C74.9204 68.7268 71.3523 72.24 68.7174 76.7413C66.1923 81.1328 64.9298 86.0183 64.9298 91.3979ZM82.7153 91.3979C82.7153 89.0923 83.2094 87.0064 84.1975 85.14C85.1855 83.2736 86.5579 81.7915 88.3145 80.6936C90.0711 79.5957 92.157 79.0468 94.5723 79.0468C96.9877 79.0468 99.0187 79.5957 100.666 80.6936C102.422 81.7915 103.794 83.2736 104.783 85.14C105.771 87.0064 106.265 89.0923 106.265 91.3979C106.265 93.5936 105.771 95.6796 104.783 97.6558C103.794 99.5221 102.422 101.004 100.666 102.102C99.0187 103.2 96.9877 103.749 94.5723 103.749C92.157 103.749 90.0711 103.2 88.3145 102.102C86.5579 101.004 85.1855 99.5221 84.1975 97.6558C83.2094 95.6796 82.7153 93.5936 82.7153 91.3979ZM88.3145 2.63489L4.32723 117.911H25.9004L109.888 2.63489H88.3145Z" fill="white" fill-opacity="0.08"/>
<path d="M132.809 29.1485C132.809 34.4183 134.072 39.3038 136.597 43.8051C139.232 48.1966 142.8 51.7098 147.301 54.3447C151.802 56.9796 156.853 58.297 162.452 58.297C168.161 58.297 173.211 56.9796 177.602 54.3447C182.104 51.7098 185.617 48.1966 188.142 43.8051C190.667 39.3038 191.93 34.4183 191.93 29.1485C191.93 23.6591 190.667 18.7187 188.142 14.3272C185.617 9.93575 182.104 6.47745 177.602 3.95234C173.211 1.31745 168.161 0 162.452 0C156.853 0 151.802 1.31745 147.301 3.95234C142.8 6.47745 139.232 9.93575 136.597 14.3272C134.072 18.7187 132.809 23.6591 132.809 29.1485ZM150.595 29.1485C150.595 26.843 151.089 24.757 152.077 22.8906C153.065 21.0243 154.437 19.5421 156.194 18.4443C157.95 17.2366 160.036 16.6328 162.452 16.6328C164.867 16.6328 166.898 17.2366 168.545 18.4443C170.302 19.5421 171.674 21.0243 172.662 22.8906C173.65 24.757 174.144 26.843 174.144 29.1485C174.144 31.3442 173.65 33.4302 172.662 35.4064C171.674 37.2728 170.302 38.7549 168.545 39.8528C166.898 40.9506 164.867 41.4996 162.452 41.4996C160.036 41.4996 157.95 40.9506 156.194 39.8528C154.437 38.7549 153.065 37.2728 152.077 35.4064C151.089 33.4302 150.595 31.3442 150.595 29.1485ZM207.739 91.3979C207.739 96.7774 209.002 101.663 211.527 106.054C214.161 110.446 217.73 113.959 222.231 116.594C226.732 119.229 231.782 120.546 237.382 120.546C243.09 120.546 248.141 119.229 252.532 116.594C257.033 113.959 260.547 110.446 263.072 106.054C265.597 101.663 266.859 96.7774 266.859 91.3979C266.859 86.0183 265.597 81.1328 263.072 76.7413C260.547 72.24 257.033 68.7268 252.532 66.2017C248.141 63.5668 243.09 62.2494 237.382 62.2494C231.782 62.2494 226.732 63.5668 222.231 66.2017C217.73 68.7268 214.161 72.24 211.527 76.7413C209.002 81.1328 207.739 86.0183 207.739 91.3979ZM225.524 91.3979C225.524 89.0923 226.019 87.0064 227.007 85.14C227.995 83.2736 229.367 81.7915 231.124 80.6936C232.88 79.5957 234.966 79.0468 237.382 79.0468C239.797 79.0468 241.828 79.5957 243.475 80.6936C245.231 81.7915 246.604 83.2736 247.592 85.14C248.58 87.0064 249.074 89.0923 249.074 91.3979C249.074 93.5936 248.58 95.6796 247.592 97.6558C246.604 99.5221 245.231 101.004 243.475 102.102C241.828 103.2 239.797 103.749 237.382 103.749C234.966 103.749 232.88 103.2 231.124 102.102C229.367 101.004 227.995 99.5221 227.007 97.6558C226.019 95.6796 225.524 93.5936 225.524 91.3979ZM231.124 2.63489L147.136 117.911H168.71L252.697 2.63489H231.124Z" fill="white" fill-opacity="0.08"/>
<path d="M275.618 29.1485C275.618 34.4183 276.881 39.3038 279.406 43.8051C282.041 48.1966 285.609 51.7098 290.11 54.3447C294.612 56.9796 299.662 58.297 305.261 58.297C310.97 58.297 316.02 56.9796 320.412 54.3447C324.913 51.7098 328.426 48.1966 330.951 43.8051C333.476 39.3038 334.739 34.4183 334.739 29.1485C334.739 23.6591 333.476 18.7187 330.951 14.3272C328.426 9.93575 324.913 6.47745 320.412 3.95234C316.02 1.31745 310.97 0 305.261 0C299.662 0 294.612 1.31745 290.11 3.95234C285.609 6.47745 282.041 9.93575 279.406 14.3272C276.881 18.7187 275.618 23.6591 275.618 29.1485ZM293.404 29.1485C293.404 26.843 293.898 24.757 294.886 22.8906C295.874 21.0243 297.246 19.5421 299.003 18.4443C300.76 17.2366 302.846 16.6328 305.261 16.6328C307.676 16.6328 309.707 17.2366 311.354 18.4443C313.111 19.5421 314.483 21.0243 315.471 22.8906C316.459 24.757 316.953 26.843 316.953 29.1485C316.953 31.3442 316.459 33.4302 315.471 35.4064C314.483 37.2728 313.111 38.7549 311.354 39.8528C309.707 40.9506 307.676 41.4996 305.261 41.4996C302.846 41.4996 300.76 40.9506 299.003 39.8528C297.246 38.7549 295.874 37.2728 294.886 35.4064C293.898 33.4302 293.404 31.3442 293.404 29.1485ZM350.548 91.3979C350.548 96.7774 351.811 101.663 354.336 106.054C356.971 110.446 360.539 113.959 365.04 116.594C369.541 119.229 374.592 120.546 380.191 120.546C385.9 120.546 390.95 119.229 395.341 116.594C399.843 113.959 403.356 110.446 405.881 106.054C408.406 101.663 409.669 96.7774 409.669 91.3979C409.669 86.0183 408.406 81.1328 405.881 76.7413C403.356 72.24 399.843 68.7268 395.341 66.2017C390.95 63.5668 385.9 62.2494 380.191 62.2494C374.592 62.2494 369.541 63.5668 365.04 66.2017C360.539 68.7268 356.971 72.24 354.336 76.7413C351.811 81.1328 350.548 86.0183 350.548 91.3979ZM368.334 91.3979C368.334 89.0923 368.828 87.0064 369.816 85.14C370.804 83.2736 372.176 81.7915 373.933 80.6936C375.689 79.5957 377.775 79.0468 380.191 79.0468C382.606 79.0468 384.637 79.5957 386.284 80.6936C388.04 81.7915 389.413 83.2736 390.401 85.14C391.389 87.0064 391.883 89.0923 391.883 91.3979C391.883 93.5936 391.389 95.6796 390.401 97.6558C389.413 99.5221 388.04 101.004 386.284 102.102C384.637 103.2 382.606 103.749 380.191 103.749C377.775 103.749 375.689 103.2 373.933 102.102C372.176 101.004 370.804 99.5221 369.816 97.6558C368.828 95.6796 368.334 93.5936 368.334 91.3979ZM373.933 2.63489L289.946 117.911H311.519L395.506 2.63489H373.933Z" fill="white" fill-opacity="0.08"/>
<path d="M418.428 29.1485C418.428 34.4183 419.69 39.3038 422.215 43.8051C424.85 48.1966 428.418 51.7098 432.919 54.3447C437.421 56.9796 442.471 58.297 448.07 58.297C453.779 58.297 458.829 56.9796 463.221 54.3447C467.722 51.7098 471.235 48.1966 473.76 43.8051C476.285 39.3038 477.548 34.4183 477.548 29.1485C477.548 23.6591 476.285 18.7187 473.76 14.3272C471.235 9.93575 467.722 6.47745 463.221 3.95234C458.829 1.31745 453.779 0 448.07 0C442.471 0 437.421 1.31745 432.919 3.95234C428.418 6.47745 424.85 9.93575 422.215 14.3272C419.69 18.7187 418.428 23.6591 418.428 29.1485ZM436.213 29.1485C436.213 26.843 436.707 24.757 437.695 22.8906C438.683 21.0243 440.056 19.5421 441.812 18.4443C443.569 17.2366 445.655 16.6328 448.07 16.6328C450.485 16.6328 452.516 17.2366 454.163 18.4443C455.92 19.5421 457.292 21.0243 458.28 22.8906C459.268 24.757 459.762 26.843 459.762 29.1485C459.762 31.3442 459.268 33.4302 458.28 35.4064C457.292 37.2728 455.92 38.7549 454.163 39.8528C452.516 40.9506 450.485 41.4996 448.07 41.4996C445.655 41.4996 443.569 40.9506 441.812 39.8528C440.056 38.7549 438.683 37.2728 437.695 35.4064C436.707 33.4302 436.213 31.3442 436.213 29.1485ZM493.357 91.3979C493.357 96.7774 494.62 101.663 497.145 106.054C499.78 110.446 503.348 113.959 507.849 116.594C512.351 119.229 517.401 120.546 523 120.546C528.709 120.546 533.759 119.229 538.151 116.594C542.652 113.959 546.165 110.446 548.69 106.054C551.215 101.663 552.478 96.7774 552.478 91.3979C552.478 86.0183 551.215 81.1328 548.69 76.7413C546.165 72.24 542.652 68.7268 538.151 66.2017C533.759 63.5668 528.709 62.2494 523 62.2494C517.401 62.2494 512.351 63.5668 507.849 66.2017C503.348 68.7268 499.78 72.24 497.145 76.7413C494.62 81.1328 493.357 86.0183 493.357 91.3979ZM511.143 91.3979C511.143 89.0923 511.637 87.0064 512.625 85.14C513.613 83.2736 514.985 81.7915 516.742 80.6936C518.499 79.5957 520.585 79.0468 523 79.0468C525.415 79.0468 527.446 79.5957 529.093 80.6936C530.85 81.7915 532.222 83.2736 533.21 85.14C534.198 87.0064 534.692 89.0923 534.692 91.3979C534.692 93.5936 534.198 95.6796 533.21 97.6558C532.222 99.5221 530.85 101.004 529.093 102.102C527.446 103.2 525.415 103.749 523 103.749C520.585 103.749 518.499 103.2 516.742 102.102C514.985 101.004 513.613 99.5221 512.625 97.6558C511.637 95.6796 511.143 93.5936 511.143 91.3979ZM516.742 2.63489L432.755 117.911H454.328L538.315 2.63489H516.742Z" fill="white" fill-opacity="0.08"/>
<path d="M561.237 29.1485C561.237 34.4183 562.499 39.3038 565.024 43.8051C567.659 48.1966 571.227 51.7098 575.729 54.3447C580.23 56.9796 585.28 58.297 590.879 58.297C596.588 58.297 601.638 56.9796 606.03 54.3447C610.531 51.7098 614.044 48.1966 616.569 43.8051C619.095 39.3038 620.357 34.4183 620.357 29.1485C620.357 23.6591 619.095 18.7187 616.569 14.3272C614.044 9.93575 610.531 6.47745 606.03 3.95234C601.638 1.31745 596.588 0 590.879 0C585.28 0 580.23 1.31745 575.729 3.95234C571.227 6.47745 567.659 9.93575 565.024 14.3272C562.499 18.7187 561.237 23.6591 561.237 29.1485ZM579.022 29.1485C579.022 26.843 579.516 24.757 580.504 22.8906C581.492 21.0243 582.865 19.5421 584.621 18.4443C586.378 17.2366 588.464 16.6328 590.879 16.6328C593.295 16.6328 595.326 17.2366 596.972 18.4443C598.729 19.5421 600.101 21.0243 601.089 22.8906C602.078 24.757 602.572 26.843 602.572 29.1485C602.572 31.3442 602.078 33.4302 601.089 35.4064C600.101 37.2728 598.729 38.7549 596.972 39.8528C595.326 40.9506 593.295 41.4996 590.879 41.4996C588.464 41.4996 586.378 40.9506 584.621 39.8528C582.865 38.7549 581.492 37.2728 580.504 35.4064C579.516 33.4302 579.022 31.3442 579.022 29.1485ZM636.167 91.3979C636.167 96.7774 637.429 101.663 639.954 106.054C642.589 110.446 646.157 113.959 650.658 116.594C655.16 119.229 660.21 120.546 665.809 120.546C671.518 120.546 676.568 119.229 680.96 116.594C685.461 113.959 688.974 110.446 691.499 106.054C694.024 101.663 695.287 96.7774 695.287 91.3979C695.287 86.0183 694.024 81.1328 691.499 76.7413C688.974 72.24 685.461 68.7268 680.96 66.2017C676.568 63.5668 671.518 62.2494 665.809 62.2494C660.21 62.2494 655.16 63.5668 650.658 66.2017C646.157 68.7268 642.589 72.24 639.954 76.7413C637.429 81.1328 636.167 86.0183 636.167 91.3979ZM653.952 91.3979C653.952 89.0923 654.446 87.0064 655.434 85.14C656.422 83.2736 657.795 81.7915 659.551 80.6936C661.308 79.5957 663.394 79.0468 665.809 79.0468C668.224 79.0468 670.255 79.5957 671.902 80.6936C673.659 81.7915 675.031 83.2736 676.019 85.14C677.007 87.0064 677.501 89.0923 677.501 91.3979C677.501 93.5936 677.007 95.6796 676.019 97.6558C675.031 99.5221 673.659 101.004 671.902 102.102C670.255 103.2 668.224 103.749 665.809 103.749C663.394 103.749 661.308 103.2 659.551 102.102C657.795 101.004 656.422 99.5221 655.434 97.6558C654.446 95.6796 653.952 93.5936 653.952 91.3979ZM659.551 2.63489L575.564 117.911H597.137L681.124 2.63489H659.551Z" fill="white" fill-opacity="0.08"/>
<path d="M704.046 29.1485C704.046 34.4183 705.308 39.3038 707.834 43.8051C710.468 48.1966 714.037 51.7098 718.538 54.3447C723.039 56.9796 728.089 58.297 733.688 58.297C739.397 58.297 744.448 56.9796 748.839 54.3447C753.34 51.7098 756.854 48.1966 759.379 43.8051C761.904 39.3038 763.166 34.4183 763.166 29.1485C763.166 23.6591 761.904 18.7187 759.379 14.3272C756.854 9.93575 753.34 6.47745 748.839 3.95234C744.448 1.31745 739.397 0 733.688 0C728.089 0 723.039 1.31745 718.538 3.95234C714.037 6.47745 710.468 9.93575 707.834 14.3272C705.308 18.7187 704.046 23.6591 704.046 29.1485ZM721.831 29.1485C721.831 26.843 722.326 24.757 723.314 22.8906C724.302 21.0243 725.674 19.5421 727.431 18.4443C729.187 17.2366 731.273 16.6328 733.688 16.6328C736.104 16.6328 738.135 17.2366 739.782 18.4443C741.538 19.5421 742.911 21.0243 743.899 22.8906C744.887 24.757 745.381 26.843 745.381 29.1485C745.381 31.3442 744.887 33.4302 743.899 35.4064C742.911 37.2728 741.538 38.7549 739.782 39.8528C738.135 40.9506 736.104 41.4996 733.688 41.4996C731.273 41.4996 729.187 40.9506 727.431 39.8528C725.674 38.7549 724.302 37.2728 723.314 35.4064C722.326 33.4302 721.831 31.3442 721.831 29.1485ZM778.976 91.3979C778.976 96.7774 780.238 101.663 782.763 106.054C785.398 110.446 788.966 113.959 793.468 116.594C797.969 119.229 803.019 120.546 808.618 120.546C814.327 120.546 819.377 119.229 823.769 116.594C828.27 113.959 831.783 110.446 834.308 106.054C836.834 101.663 838.096 96.7774 838.096 91.3979C838.096 86.0183 836.834 81.1328 834.308 76.7413C831.783 72.24 828.27 68.7268 823.769 66.2017C819.377 63.5668 814.327 62.2494 808.618 62.2494C803.019 62.2494 797.969 63.5668 793.468 66.2017C788.966 68.7268 785.398 72.24 782.763 76.7413C780.238 81.1328 778.976 86.0183 778.976 91.3979ZM796.761 91.3979C796.761 89.0923 797.255 87.0064 798.243 85.14C799.231 83.2736 800.604 81.7915 802.36 80.6936C804.117 79.5957 806.203 79.0468 808.618 79.0468C811.034 79.0468 813.065 79.5957 814.711 80.6936C816.468 81.7915 817.84 83.2736 818.828 85.14C819.817 87.0064 820.311 89.0923 820.311 91.3979C820.311 93.5936 819.817 95.6796 818.828 97.6558C817.84 99.5221 816.468 101.004 814.711 102.102C813.065 103.2 811.034 103.749 808.618 103.749C806.203 103.749 804.117 103.2 802.36 102.102C800.604 101.004 799.231 99.5221 798.243 97.6558C797.255 95.6796 796.761 93.5936 796.761 91.3979ZM802.36 2.63489L718.373 117.911H739.946L823.934 2.63489H802.36Z" fill="white" fill-opacity="0.08"/>
<path d="M846.855 29.1485C846.855 34.4183 848.118 39.3038 850.643 43.8051C853.278 48.1966 856.846 51.7098 861.347 54.3447C865.848 56.9796 870.898 58.297 876.498 58.297C882.207 58.297 887.257 56.9796 891.648 54.3447C896.15 51.7098 899.663 48.1966 902.188 43.8051C904.713 39.3038 905.975 34.4183 905.975 29.1485C905.975 23.6591 904.713 18.7187 902.188 14.3272C899.663 9.93575 896.15 6.47745 891.648 3.95234C887.257 1.31745 882.207 0 876.498 0C870.898 0 865.848 1.31745 861.347 3.95234C856.846 6.47745 853.278 9.93575 850.643 14.3272C848.118 18.7187 846.855 23.6591 846.855 29.1485ZM864.641 29.1485C864.641 26.843 865.135 24.757 866.123 22.8906C867.111 21.0243 868.483 19.5421 870.24 18.4443C871.996 17.2366 874.082 16.6328 876.498 16.6328C878.913 16.6328 880.944 17.2366 882.591 18.4443C884.347 19.5421 885.72 21.0243 886.708 22.8906C887.696 24.757 888.19 26.843 888.19 29.1485C888.19 31.3442 887.696 33.4302 886.708 35.4064C885.72 37.2728 884.347 38.7549 882.591 39.8528C880.944 40.9506 878.913 41.4996 876.498 41.4996C874.082 41.4996 871.996 40.9506 870.24 39.8528C868.483 38.7549 867.111 37.2728 866.123 35.4064C865.135 33.4302 864.641 31.3442 864.641 29.1485ZM921.785 91.3979C921.785 96.7774 923.047 101.663 925.573 106.054C928.207 110.446 931.776 113.959 936.277 116.594C940.778 119.229 945.828 120.546 951.427 120.546C957.136 120.546 962.187 119.229 966.578 116.594C971.079 113.959 974.593 110.446 977.118 106.054C979.643 101.663 980.905 96.7774 980.905 91.3979C980.905 86.0183 979.643 81.1328 977.118 76.7413C974.593 72.24 971.079 68.7268 966.578 66.2017C962.187 63.5668 957.136 62.2494 951.427 62.2494C945.828 62.2494 940.778 63.5668 936.277 66.2017C931.776 68.7268 928.207 72.24 925.573 76.7413C923.047 81.1328 921.785 86.0183 921.785 91.3979ZM939.57 91.3979C939.57 89.0923 940.064 87.0064 941.052 85.14C942.041 83.2736 943.413 81.7915 945.17 80.6936C946.926 79.5957 949.012 79.0468 951.427 79.0468C953.843 79.0468 955.874 79.5957 957.521 80.6936C959.277 81.7915 960.65 83.2736 961.638 85.14C962.626 87.0064 963.12 89.0923 963.12 91.3979C963.12 93.5936 962.626 95.6796 961.638 97.6558C960.65 99.5221 959.277 101.004 957.521 102.102C955.874 103.2 953.843 103.749 951.427 103.749C949.012 103.749 946.926 103.2 945.17 102.102C943.413 101.004 942.041 99.5221 941.052 97.6558C940.064 95.6796 939.57 93.5936 939.57 91.3979ZM945.17 2.63489L861.182 117.911H882.755L966.743 2.63489H945.17Z" fill="white" fill-opacity="0.08"/>
<path d="M989.664 29.1485C989.664 34.4183 990.927 39.3038 993.452 43.8051C996.087 48.1966 999.655 51.7098 1004.16 54.3447C1008.66 56.9796 1013.71 58.297 1019.31 58.297C1025.02 58.297 1030.07 56.9796 1034.46 54.3447C1038.96 51.7098 1042.47 48.1966 1045 43.8051C1047.52 39.3038 1048.78 34.4183 1048.78 29.1485C1048.78 23.6591 1047.52 18.7187 1045 14.3272C1042.47 9.93575 1038.96 6.47745 1034.46 3.95234C1030.07 1.31745 1025.02 0 1019.31 0C1013.71 0 1008.66 1.31745 1004.16 3.95234C999.655 6.47745 996.087 9.93575 993.452 14.3272C990.927 18.7187 989.664 23.6591 989.664 29.1485ZM1007.45 29.1485C1007.45 26.843 1007.94 24.757 1008.93 22.8906C1009.92 21.0243 1011.29 19.5421 1013.05 18.4443C1014.81 17.2366 1016.89 16.6328 1019.31 16.6328C1021.72 16.6328 1023.75 17.2366 1025.4 18.4443C1027.16 19.5421 1028.53 21.0243 1029.52 22.8906C1030.51 24.757 1031 26.843 1031 29.1485C1031 31.3442 1030.51 33.4302 1029.52 35.4064C1028.53 37.2728 1027.16 38.7549 1025.4 39.8528C1023.75 40.9506 1021.72 41.4996 1019.31 41.4996C1016.89 41.4996 1014.81 40.9506 1013.05 39.8528C1011.29 38.7549 1009.92 37.2728 1008.93 35.4064C1007.94 33.4302 1007.45 31.3442 1007.45 29.1485ZM1064.59 91.3979C1064.59 96.7774 1065.86 101.663 1068.38 106.054C1071.02 110.446 1074.58 113.959 1079.09 116.594C1083.59 119.229 1088.64 120.546 1094.24 120.546C1099.95 120.546 1105 119.229 1109.39 116.594C1113.89 113.959 1117.4 110.446 1119.93 106.054C1122.45 101.663 1123.71 96.7774 1123.71 91.3979C1123.71 86.0183 1122.45 81.1328 1119.93 76.7413C1117.4 72.24 1113.89 68.7268 1109.39 66.2017C1105 63.5668 1099.95 62.2494 1094.24 62.2494C1088.64 62.2494 1083.59 63.5668 1079.09 66.2017C1074.58 68.7268 1071.02 72.24 1068.38 76.7413C1065.86 81.1328 1064.59 86.0183 1064.59 91.3979ZM1082.38 91.3979C1082.38 89.0923 1082.87 87.0064 1083.86 85.14C1084.85 83.2736 1086.22 81.7915 1087.98 80.6936C1089.74 79.5957 1091.82 79.0468 1094.24 79.0468C1096.65 79.0468 1098.68 79.5957 1100.33 80.6936C1102.09 81.7915 1103.46 83.2736 1104.45 85.14C1105.43 87.0064 1105.93 89.0923 1105.93 91.3979C1105.93 93.5936 1105.43 95.6796 1104.45 97.6558C1103.46 99.5221 1102.09 101.004 1100.33 102.102C1098.68 103.2 1096.65 103.749 1094.24 103.749C1091.82 103.749 1089.74 103.2 1087.98 102.102C1086.22 101.004 1084.85 99.5221 1083.86 97.6558C1082.87 95.6796 1082.38 93.5936 1082.38 91.3979ZM1087.98 2.63489L1003.99 117.911H1025.56L1109.55 2.63489H1087.98Z" fill="white" fill-opacity="0.08"/>
<path d="M1132.47 29.1485C1132.47 34.4183 1133.74 39.3038 1136.26 43.8051C1138.9 48.1966 1142.46 51.7098 1146.97 54.3447C1151.47 56.9796 1156.52 58.297 1162.12 58.297C1167.82 58.297 1172.88 56.9796 1177.27 54.3447C1181.77 51.7098 1185.28 48.1966 1187.81 43.8051C1190.33 39.3038 1191.59 34.4183 1191.59 29.1485C1191.59 23.6591 1190.33 18.7187 1187.81 14.3272C1185.28 9.93575 1181.77 6.47745 1177.27 3.95234C1172.88 1.31745 1167.82 0 1162.12 0C1156.52 0 1151.47 1.31745 1146.97 3.95234C1142.46 6.47745 1138.9 9.93575 1136.26 14.3272C1133.74 18.7187 1132.47 23.6591 1132.47 29.1485ZM1150.26 29.1485C1150.26 26.843 1150.75 24.757 1151.74 22.8906C1152.73 21.0243 1154.1 19.5421 1155.86 18.4443C1157.61 17.2366 1159.7 16.6328 1162.12 16.6328C1164.53 16.6328 1166.56 17.2366 1168.21 18.4443C1169.97 19.5421 1171.34 21.0243 1172.33 22.8906C1173.31 24.757 1173.81 26.843 1173.81 29.1485C1173.81 31.3442 1173.31 33.4302 1172.33 35.4064C1171.34 37.2728 1169.97 38.7549 1168.21 39.8528C1166.56 40.9506 1164.53 41.4996 1162.12 41.4996C1159.7 41.4996 1157.61 40.9506 1155.86 39.8528C1154.1 38.7549 1152.73 37.2728 1151.74 35.4064C1150.75 33.4302 1150.26 31.3442 1150.26 29.1485ZM1207.4 91.3979C1207.4 96.7774 1208.67 101.663 1211.19 106.054C1213.83 110.446 1217.39 113.959 1221.9 116.594C1226.4 119.229 1231.45 120.546 1237.05 120.546C1242.75 120.546 1247.8 119.229 1252.2 116.594C1256.7 113.959 1260.21 110.446 1262.74 106.054C1265.26 101.663 1266.52 96.7774 1266.52 91.3979C1266.52 86.0183 1265.26 81.1328 1262.74 76.7413C1260.21 72.24 1256.7 68.7268 1252.2 66.2017C1247.8 63.5668 1242.75 62.2494 1237.05 62.2494C1231.45 62.2494 1226.4 63.5668 1221.9 66.2017C1217.39 68.7268 1213.83 72.24 1211.19 76.7413C1208.67 81.1328 1207.4 86.0183 1207.4 91.3979ZM1225.19 91.3979C1225.19 89.0923 1225.68 87.0064 1226.67 85.14C1227.66 83.2736 1229.03 81.7915 1230.79 80.6936C1232.54 79.5957 1234.63 79.0468 1237.05 79.0468C1239.46 79.0468 1241.49 79.5957 1243.14 80.6936C1244.9 81.7915 1246.27 83.2736 1247.26 85.14C1248.24 87.0064 1248.74 89.0923 1248.74 91.3979C1248.74 93.5936 1248.24 95.6796 1247.26 97.6558C1246.27 99.5221 1244.9 101.004 1243.14 102.102C1241.49 103.2 1239.46 103.749 1237.05 103.749C1234.63 103.749 1232.54 103.2 1230.79 102.102C1229.03 101.004 1227.66 99.5221 1226.67 97.6558C1225.68 95.6796 1225.19 93.5936 1225.19 91.3979ZM1230.79 2.63489L1146.8 117.911H1168.37L1252.36 2.63489H1230.79Z" fill="white" fill-opacity="0.08"/>
<path d="M1275.28 29.1485C1275.28 34.4183 1276.55 39.3038 1279.07 43.8051C1281.71 48.1966 1285.27 51.7098 1289.77 54.3447C1294.28 56.9796 1299.33 58.297 1304.93 58.297C1310.63 58.297 1315.68 56.9796 1320.08 54.3447C1324.58 51.7098 1328.09 48.1966 1330.62 43.8051C1333.14 39.3038 1334.4 34.4183 1334.4 29.1485C1334.4 23.6591 1333.14 18.7187 1330.62 14.3272C1328.09 9.93575 1324.58 6.47745 1320.08 3.95234C1315.68 1.31745 1310.63 0 1304.93 0C1299.33 0 1294.28 1.31745 1289.77 3.95234C1285.27 6.47745 1281.71 9.93575 1279.07 14.3272C1276.55 18.7187 1275.28 23.6591 1275.28 29.1485ZM1293.07 29.1485C1293.07 26.843 1293.56 24.757 1294.55 22.8906C1295.54 21.0243 1296.91 19.5421 1298.67 18.4443C1300.42 17.2366 1302.51 16.6328 1304.93 16.6328C1307.34 16.6328 1309.37 17.2366 1311.02 18.4443C1312.77 19.5421 1314.15 21.0243 1315.14 22.8906C1316.12 24.757 1316.62 26.843 1316.62 29.1485C1316.62 31.3442 1316.12 33.4302 1315.14 35.4064C1314.15 37.2728 1312.77 38.7549 1311.02 39.8528C1309.37 40.9506 1307.34 41.4996 1304.93 41.4996C1302.51 41.4996 1300.42 40.9506 1298.67 39.8528C1296.91 38.7549 1295.54 37.2728 1294.55 35.4064C1293.56 33.4302 1293.07 31.3442 1293.07 29.1485ZM1350.21 91.3979C1350.21 96.7774 1351.47 101.663 1354 106.054C1356.63 110.446 1360.2 113.959 1364.7 116.594C1369.21 119.229 1374.26 120.546 1379.85 120.546C1385.56 120.546 1390.61 119.229 1395.01 116.594C1399.51 113.959 1403.02 110.446 1405.55 106.054C1408.07 101.663 1409.33 96.7774 1409.33 91.3979C1409.33 86.0183 1408.07 81.1328 1405.55 76.7413C1403.02 72.24 1399.51 68.7268 1395.01 66.2017C1390.61 63.5668 1385.56 62.2494 1379.85 62.2494C1374.26 62.2494 1369.21 63.5668 1364.7 66.2017C1360.2 68.7268 1356.63 72.24 1354 76.7413C1351.47 81.1328 1350.21 86.0183 1350.21 91.3979ZM1368 91.3979C1368 89.0923 1368.49 87.0064 1369.48 85.14C1370.47 83.2736 1371.84 81.7915 1373.6 80.6936C1375.35 79.5957 1377.44 79.0468 1379.85 79.0468C1382.27 79.0468 1384.3 79.5957 1385.95 80.6936C1387.7 81.7915 1389.08 83.2736 1390.07 85.14C1391.05 87.0064 1391.55 89.0923 1391.55 91.3979C1391.55 93.5936 1391.05 95.6796 1390.07 97.6558C1389.08 99.5221 1387.7 101.004 1385.95 102.102C1384.3 103.2 1382.27 103.749 1379.85 103.749C1377.44 103.749 1375.35 103.2 1373.6 102.102C1371.84 101.004 1370.47 99.5221 1369.48 97.6558C1368.49 95.6796 1368 93.5936 1368 91.3979ZM1373.6 2.63489L1289.61 117.911H1311.18L1395.17 2.63489H1373.6Z" fill="white" fill-opacity="0.08"/>
<path d="M1407 29.1485C1407 34.4183 1408.26 39.3038 1410.79 43.8051C1413.42 48.1966 1416.99 51.7098 1421.49 54.3447C1425.99 56.9796 1431.04 58.297 1436.64 58.297C1442.35 58.297 1447.4 56.9796 1451.79 54.3447C1456.29 51.7098 1459.81 48.1966 1462.33 43.8051C1464.86 39.3038 1466.12 34.4183 1466.12 29.1485C1466.12 23.6591 1464.86 18.7187 1462.33 14.3272C1459.81 9.93575 1456.29 6.47745 1451.79 3.95234C1447.4 1.31745 1442.35 0 1436.64 0C1431.04 0 1425.99 1.31745 1421.49 3.95234C1416.99 6.47745 1413.42 9.93575 1410.79 14.3272C1408.26 18.7187 1407 23.6591 1407 29.1485ZM1424.79 29.1485C1424.79 26.843 1425.28 24.757 1426.27 22.8906C1427.26 21.0243 1428.63 19.5421 1430.38 18.4443C1432.14 17.2366 1434.23 16.6328 1436.64 16.6328C1439.06 16.6328 1441.09 17.2366 1442.74 18.4443C1444.49 19.5421 1445.86 21.0243 1446.85 22.8906C1447.84 24.757 1448.33 26.843 1448.33 29.1485C1448.33 31.3442 1447.84 33.4302 1446.85 35.4064C1445.86 37.2728 1444.49 38.7549 1442.74 39.8528C1441.09 40.9506 1439.06 41.4996 1436.64 41.4996C1434.23 41.4996 1432.14 40.9506 1430.38 39.8528C1428.63 38.7549 1427.26 37.2728 1426.27 35.4064C1425.28 33.4302 1424.79 31.3442 1424.79 29.1485ZM1481.93 91.3979C1481.93 96.7774 1483.19 101.663 1485.72 106.054C1488.35 110.446 1491.92 113.959 1496.42 116.594C1500.92 119.229 1505.97 120.546 1511.57 120.546C1517.28 120.546 1522.33 119.229 1526.72 116.594C1531.22 113.959 1534.74 110.446 1537.26 106.054C1539.79 101.663 1541.05 96.7774 1541.05 91.3979C1541.05 86.0183 1539.79 81.1328 1537.26 76.7413C1534.74 72.24 1531.22 68.7268 1526.72 66.2017C1522.33 63.5668 1517.28 62.2494 1511.57 62.2494C1505.97 62.2494 1500.92 63.5668 1496.42 66.2017C1491.92 68.7268 1488.35 72.24 1485.72 76.7413C1483.19 81.1328 1481.93 86.0183 1481.93 91.3979ZM1499.72 91.3979C1499.72 89.0923 1500.21 87.0064 1501.2 85.14C1502.19 83.2736 1503.56 81.7915 1505.31 80.6936C1507.07 79.5957 1509.16 79.0468 1511.57 79.0468C1513.99 79.0468 1516.02 79.5957 1517.67 80.6936C1519.42 81.7915 1520.79 83.2736 1521.78 85.14C1522.77 87.0064 1523.26 89.0923 1523.26 91.3979C1523.26 93.5936 1522.77 95.6796 1521.78 97.6558C1520.79 99.5221 1519.42 101.004 1517.67 102.102C1516.02 103.2 1513.99 103.749 1511.57 103.749C1509.16 103.749 1507.07 103.2 1505.31 102.102C1503.56 101.004 1502.19 99.5221 1501.2 97.6558C1500.21 95.6796 1499.72 93.5936 1499.72 91.3979ZM1505.31 2.63489L1421.33 117.911H1442.9L1526.89 2.63489H1505.31Z" fill="white" fill-opacity="0.08"/>
<path d="M1549.81 29.1485C1549.81 34.4183 1551.07 39.3038 1553.6 43.8051C1556.23 48.1966 1559.8 51.7098 1564.3 54.3447C1568.8 56.9796 1573.85 58.297 1579.45 58.297C1585.16 58.297 1590.21 56.9796 1594.6 54.3447C1599.1 51.7098 1602.62 48.1966 1605.14 43.8051C1607.67 39.3038 1608.93 34.4183 1608.93 29.1485C1608.93 23.6591 1607.67 18.7187 1605.14 14.3272C1602.62 9.93575 1599.1 6.47745 1594.6 3.95234C1590.21 1.31745 1585.16 0 1579.45 0C1573.85 0 1568.8 1.31745 1564.3 3.95234C1559.8 6.47745 1556.23 9.93575 1553.6 14.3272C1551.07 18.7187 1549.81 23.6591 1549.81 29.1485ZM1567.59 29.1485C1567.59 26.843 1568.09 24.757 1569.08 22.8906C1570.06 21.0243 1571.44 19.5421 1573.19 18.4443C1574.95 17.2366 1577.04 16.6328 1579.45 16.6328C1581.87 16.6328 1583.9 17.2366 1585.54 18.4443C1587.3 19.5421 1588.67 21.0243 1589.66 22.8906C1590.65 24.757 1591.14 26.843 1591.14 29.1485C1591.14 31.3442 1590.65 33.4302 1589.66 35.4064C1588.67 37.2728 1587.3 38.7549 1585.54 39.8528C1583.9 40.9506 1581.87 41.4996 1579.45 41.4996C1577.04 41.4996 1574.95 40.9506 1573.19 39.8528C1571.44 38.7549 1570.06 37.2728 1569.08 35.4064C1568.09 33.4302 1567.59 31.3442 1567.59 29.1485ZM1624.74 91.3979C1624.74 96.7774 1626 101.663 1628.53 106.054C1631.16 110.446 1634.73 113.959 1639.23 116.594C1643.73 119.229 1648.78 120.546 1654.38 120.546C1660.09 120.546 1665.14 119.229 1669.53 116.594C1674.03 113.959 1677.55 110.446 1680.07 106.054C1682.6 101.663 1683.86 96.7774 1683.86 91.3979C1683.86 86.0183 1682.6 81.1328 1680.07 76.7413C1677.55 72.24 1674.03 68.7268 1669.53 66.2017C1665.14 63.5668 1660.09 62.2494 1654.38 62.2494C1648.78 62.2494 1643.73 63.5668 1639.23 66.2017C1634.73 68.7268 1631.16 72.24 1628.53 76.7413C1626 81.1328 1624.74 86.0183 1624.74 91.3979ZM1642.52 91.3979C1642.52 89.0923 1643.02 87.0064 1644.01 85.14C1644.99 83.2736 1646.37 81.7915 1648.12 80.6936C1649.88 79.5957 1651.97 79.0468 1654.38 79.0468C1656.8 79.0468 1658.83 79.5957 1660.47 80.6936C1662.23 81.7915 1663.6 83.2736 1664.59 85.14C1665.58 87.0064 1666.07 89.0923 1666.07 91.3979C1666.07 93.5936 1665.58 95.6796 1664.59 97.6558C1663.6 99.5221 1662.23 101.004 1660.47 102.102C1658.83 103.2 1656.8 103.749 1654.38 103.749C1651.97 103.749 1649.88 103.2 1648.12 102.102C1646.37 101.004 1644.99 99.5221 1644.01 97.6558C1643.02 95.6796 1642.52 93.5936 1642.52 91.3979ZM1648.12 2.63489L1564.14 117.911H1585.71L1669.7 2.63489H1648.12Z" fill="white" fill-opacity="0.08"/>
<path d="M1692.62 29.1485C1692.62 34.4183 1693.88 39.3038 1696.41 43.8051C1699.04 48.1966 1702.61 51.7098 1707.11 54.3447C1711.61 56.9796 1716.66 58.297 1722.26 58.297C1727.97 58.297 1733.02 56.9796 1737.41 54.3447C1741.91 51.7098 1745.43 48.1966 1747.95 43.8051C1750.48 39.3038 1751.74 34.4183 1751.74 29.1485C1751.74 23.6591 1750.48 18.7187 1747.95 14.3272C1745.43 9.93575 1741.91 6.47745 1737.41 3.95234C1733.02 1.31745 1727.97 0 1722.26 0C1716.66 0 1711.61 1.31745 1707.11 3.95234C1702.61 6.47745 1699.04 9.93575 1696.41 14.3272C1693.88 18.7187 1692.62 23.6591 1692.62 29.1485ZM1710.4 29.1485C1710.4 26.843 1710.9 24.757 1711.89 22.8906C1712.87 21.0243 1714.25 19.5421 1716 18.4443C1717.76 17.2366 1719.85 16.6328 1722.26 16.6328C1724.68 16.6328 1726.71 17.2366 1728.35 18.4443C1730.11 19.5421 1731.48 21.0243 1732.47 22.8906C1733.46 24.757 1733.95 26.843 1733.95 29.1485C1733.95 31.3442 1733.46 33.4302 1732.47 35.4064C1731.48 37.2728 1730.11 38.7549 1728.35 39.8528C1726.71 40.9506 1724.68 41.4996 1722.26 41.4996C1719.85 41.4996 1717.76 40.9506 1716 39.8528C1714.25 38.7549 1712.87 37.2728 1711.89 35.4064C1710.9 33.4302 1710.4 31.3442 1710.4 29.1485ZM1767.55 91.3979C1767.55 96.7774 1768.81 101.663 1771.34 106.054C1773.97 110.446 1777.54 113.959 1782.04 116.594C1786.54 119.229 1791.59 120.546 1797.19 120.546C1802.9 120.546 1807.95 119.229 1812.34 116.594C1816.84 113.959 1820.36 110.446 1822.88 106.054C1825.41 101.663 1826.67 96.7774 1826.67 91.3979C1826.67 86.0183 1825.41 81.1328 1822.88 76.7413C1820.36 72.24 1816.84 68.7268 1812.34 66.2017C1807.95 63.5668 1802.9 62.2494 1797.19 62.2494C1791.59 62.2494 1786.54 63.5668 1782.04 66.2017C1777.54 68.7268 1773.97 72.24 1771.34 76.7413C1768.81 81.1328 1767.55 86.0183 1767.55 91.3979ZM1785.33 91.3979C1785.33 89.0923 1785.83 87.0064 1786.82 85.14C1787.8 83.2736 1789.18 81.7915 1790.93 80.6936C1792.69 79.5957 1794.78 79.0468 1797.19 79.0468C1799.61 79.0468 1801.64 79.5957 1803.28 80.6936C1805.04 81.7915 1806.41 83.2736 1807.4 85.14C1808.39 87.0064 1808.88 89.0923 1808.88 91.3979C1808.88 93.5936 1808.39 95.6796 1807.4 97.6558C1806.41 99.5221 1805.04 101.004 1803.28 102.102C1801.64 103.2 1799.61 103.749 1797.19 103.749C1794.78 103.749 1792.69 103.2 1790.93 102.102C1789.18 101.004 1787.8 99.5221 1786.82 97.6558C1785.83 95.6796 1785.33 93.5936 1785.33 91.3979ZM1790.93 2.63489L1706.95 117.911H1728.52L1812.51 2.63489H1790.93Z" fill="white" fill-opacity="0.08"/>
<path d="M1835.43 29.1485C1835.43 34.4183 1836.69 39.3038 1839.22 43.8051C1841.85 48.1966 1845.42 51.7098 1849.92 54.3447C1854.42 56.9796 1859.47 58.297 1865.07 58.297C1870.78 58.297 1875.83 56.9796 1880.22 54.3447C1884.72 51.7098 1888.24 48.1966 1890.76 43.8051C1893.29 39.3038 1894.55 34.4183 1894.55 29.1485C1894.55 23.6591 1893.29 18.7187 1890.76 14.3272C1888.24 9.93575 1884.72 6.47745 1880.22 3.95234C1875.83 1.31745 1870.78 0 1865.07 0C1859.47 0 1854.42 1.31745 1849.92 3.95234C1845.42 6.47745 1841.85 9.93575 1839.22 14.3272C1836.69 18.7187 1835.43 23.6591 1835.43 29.1485ZM1853.21 29.1485C1853.21 26.843 1853.71 24.757 1854.7 22.8906C1855.68 21.0243 1857.06 19.5421 1858.81 18.4443C1860.57 17.2366 1862.65 16.6328 1865.07 16.6328C1867.49 16.6328 1869.52 17.2366 1871.16 18.4443C1872.92 19.5421 1874.29 21.0243 1875.28 22.8906C1876.27 24.757 1876.76 26.843 1876.76 29.1485C1876.76 31.3442 1876.27 33.4302 1875.28 35.4064C1874.29 37.2728 1872.92 38.7549 1871.16 39.8528C1869.52 40.9506 1867.49 41.4996 1865.07 41.4996C1862.65 41.4996 1860.57 40.9506 1858.81 39.8528C1857.06 38.7549 1855.68 37.2728 1854.7 35.4064C1853.71 33.4302 1853.21 31.3442 1853.21 29.1485ZM1910.36 91.3979C1910.36 96.7774 1911.62 101.663 1914.14 106.054C1916.78 110.446 1920.35 113.959 1924.85 116.594C1929.35 119.229 1934.4 120.546 1940 120.546C1945.71 120.546 1950.76 119.229 1955.15 116.594C1959.65 113.959 1963.17 110.446 1965.69 106.054C1968.22 101.663 1969.48 96.7774 1969.48 91.3979C1969.48 86.0183 1968.22 81.1328 1965.69 76.7413C1963.17 72.24 1959.65 68.7268 1955.15 66.2017C1950.76 63.5668 1945.71 62.2494 1940 62.2494C1934.4 62.2494 1929.35 63.5668 1924.85 66.2017C1920.35 68.7268 1916.78 72.24 1914.14 76.7413C1911.62 81.1328 1910.36 86.0183 1910.36 91.3979ZM1928.14 91.3979C1928.14 89.0923 1928.64 87.0064 1929.62 85.14C1930.61 83.2736 1931.99 81.7915 1933.74 80.6936C1935.5 79.5957 1937.58 79.0468 1940 79.0468C1942.42 79.0468 1944.45 79.5957 1946.09 80.6936C1947.85 81.7915 1949.22 83.2736 1950.21 85.14C1951.2 87.0064 1951.69 89.0923 1951.69 91.3979C1951.69 93.5936 1951.2 95.6796 1950.21 97.6558C1949.22 99.5221 1947.85 101.004 1946.09 102.102C1944.45 103.2 1942.42 103.749 1940 103.749C1937.58 103.749 1935.5 103.2 1933.74 102.102C1931.99 101.004 1930.61 99.5221 1929.62 97.6558C1928.64 95.6796 1928.14 93.5936 1928.14 91.3979ZM1933.74 2.63489L1849.75 117.911H1871.33L1955.32 2.63489H1933.74Z" fill="white" fill-opacity="0.08"/>
<path d="M1978.24 29.1485C1978.24 34.4183 1979.5 39.3038 1982.02 43.8051C1984.66 48.1966 1988.23 51.7098 1992.73 54.3447C1997.23 56.9796 2002.28 58.297 2007.88 58.297C2013.59 58.297 2018.64 56.9796 2023.03 54.3447C2027.53 51.7098 2031.04 48.1966 2033.57 43.8051C2036.09 39.3038 2037.36 34.4183 2037.36 29.1485C2037.36 23.6591 2036.09 18.7187 2033.57 14.3272C2031.04 9.93575 2027.53 6.47745 2023.03 3.95234C2018.64 1.31745 2013.59 0 2007.88 0C2002.28 0 1997.23 1.31745 1992.73 3.95234C1988.23 6.47745 1984.66 9.93575 1982.02 14.3272C1979.5 18.7187 1978.24 23.6591 1978.24 29.1485ZM1996.02 29.1485C1996.02 26.843 1996.52 24.757 1997.5 22.8906C1998.49 21.0243 1999.86 19.5421 2001.62 18.4443C2003.38 17.2366 2005.46 16.6328 2007.88 16.6328C2010.29 16.6328 2012.33 17.2366 2013.97 18.4443C2015.73 19.5421 2017.1 21.0243 2018.09 22.8906C2019.08 24.757 2019.57 26.843 2019.57 29.1485C2019.57 31.3442 2019.08 33.4302 2018.09 35.4064C2017.1 37.2728 2015.73 38.7549 2013.97 39.8528C2012.33 40.9506 2010.29 41.4996 2007.88 41.4996C2005.46 41.4996 2003.38 40.9506 2001.62 39.8528C1999.86 38.7549 1998.49 37.2728 1997.5 35.4064C1996.52 33.4302 1996.02 31.3442 1996.02 29.1485ZM2053.17 91.3979C2053.17 96.7774 2054.43 101.663 2056.95 106.054C2059.59 110.446 2063.16 113.959 2067.66 116.594C2072.16 119.229 2077.21 120.546 2082.81 120.546C2088.52 120.546 2093.57 119.229 2097.96 116.594C2102.46 113.959 2105.97 110.446 2108.5 106.054C2111.02 101.663 2112.29 96.7774 2112.29 91.3979C2112.29 86.0183 2111.02 81.1328 2108.5 76.7413C2105.97 72.24 2102.46 68.7268 2097.96 66.2017C2093.57 63.5668 2088.52 62.2494 2082.81 62.2494C2077.21 62.2494 2072.16 63.5668 2067.66 66.2017C2063.16 68.7268 2059.59 72.24 2056.95 76.7413C2054.43 81.1328 2053.17 86.0183 2053.17 91.3979ZM2070.95 91.3979C2070.95 89.0923 2071.45 87.0064 2072.43 85.14C2073.42 83.2736 2074.79 81.7915 2076.55 80.6936C2078.31 79.5957 2080.39 79.0468 2082.81 79.0468C2085.22 79.0468 2087.26 79.5957 2088.9 80.6936C2090.66 81.7915 2092.03 83.2736 2093.02 85.14C2094.01 87.0064 2094.5 89.0923 2094.5 91.3979C2094.5 93.5936 2094.01 95.6796 2093.02 97.6558C2092.03 99.5221 2090.66 101.004 2088.9 102.102C2087.26 103.2 2085.22 103.749 2082.81 103.749C2080.39 103.749 2078.31 103.2 2076.55 102.102C2074.79 101.004 2073.42 99.5221 2072.43 97.6558C2071.45 95.6796 2070.95 93.5936 2070.95 91.3979ZM2076.55 2.63489L1992.56 117.911H2014.14L2098.12 2.63489H2076.55Z" fill="white" fill-opacity="0.08"/>
<path d="M2121.05 29.1485C2121.05 34.4183 2122.31 39.3038 2124.83 43.8051C2127.47 48.1966 2131.04 51.7098 2135.54 54.3447C2140.04 56.9796 2145.09 58.297 2150.69 58.297C2156.4 58.297 2161.45 56.9796 2165.84 54.3447C2170.34 51.7098 2173.85 48.1966 2176.38 43.8051C2178.9 39.3038 2180.17 34.4183 2180.17 29.1485C2180.17 23.6591 2178.9 18.7187 2176.38 14.3272C2173.85 9.93575 2170.34 6.47745 2165.84 3.95234C2161.45 1.31745 2156.4 0 2150.69 0C2145.09 0 2140.04 1.31745 2135.54 3.95234C2131.04 6.47745 2127.47 9.93575 2124.83 14.3272C2122.31 18.7187 2121.05 23.6591 2121.05 29.1485ZM2138.83 29.1485C2138.83 26.843 2139.33 24.757 2140.31 22.8906C2141.3 21.0243 2142.67 19.5421 2144.43 18.4443C2146.19 17.2366 2148.27 16.6328 2150.69 16.6328C2153.1 16.6328 2155.13 17.2366 2156.78 18.4443C2158.54 19.5421 2159.91 21.0243 2160.9 22.8906C2161.89 24.757 2162.38 26.843 2162.38 29.1485C2162.38 31.3442 2161.89 33.4302 2160.9 35.4064C2159.91 37.2728 2158.54 38.7549 2156.78 39.8528C2155.13 40.9506 2153.1 41.4996 2150.69 41.4996C2148.27 41.4996 2146.19 40.9506 2144.43 39.8528C2142.67 38.7549 2141.3 37.2728 2140.31 35.4064C2139.33 33.4302 2138.83 31.3442 2138.83 29.1485ZM2195.98 91.3979C2195.98 96.7774 2197.24 101.663 2199.76 106.054C2202.4 110.446 2205.97 113.959 2210.47 116.594C2214.97 119.229 2220.02 120.546 2225.62 120.546C2231.33 120.546 2236.38 119.229 2240.77 116.594C2245.27 113.959 2248.78 110.446 2251.31 106.054C2253.83 101.663 2255.1 96.7774 2255.1 91.3979C2255.1 86.0183 2253.83 81.1328 2251.31 76.7413C2248.78 72.24 2245.27 68.7268 2240.77 66.2017C2236.38 63.5668 2231.33 62.2494 2225.62 62.2494C2220.02 62.2494 2214.97 63.5668 2210.47 66.2017C2205.97 68.7268 2202.4 72.24 2199.76 76.7413C2197.24 81.1328 2195.98 86.0183 2195.98 91.3979ZM2213.76 91.3979C2213.76 89.0923 2214.26 87.0064 2215.24 85.14C2216.23 83.2736 2217.6 81.7915 2219.36 80.6936C2221.12 79.5957 2223.2 79.0468 2225.62 79.0468C2228.03 79.0468 2230.06 79.5957 2231.71 80.6936C2233.47 81.7915 2234.84 83.2736 2235.83 85.14C2236.82 87.0064 2237.31 89.0923 2237.31 91.3979C2237.31 93.5936 2236.82 95.6796 2235.83 97.6558C2234.84 99.5221 2233.47 101.004 2231.71 102.102C2230.06 103.2 2228.03 103.749 2225.62 103.749C2223.2 103.749 2221.12 103.2 2219.36 102.102C2217.6 101.004 2216.23 99.5221 2215.24 97.6558C2214.26 95.6796 2213.76 93.5936 2213.76 91.3979ZM2219.36 2.63489L2135.37 117.911H2156.95L2240.93 2.63489H2219.36Z" fill="white" fill-opacity="0.08"/>
<path d="M2263.86 29.1485C2263.86 34.4183 2265.12 39.3038 2267.64 43.8051C2270.28 48.1966 2273.85 51.7098 2278.35 54.3447C2282.85 56.9796 2287.9 58.297 2293.5 58.297C2299.21 58.297 2304.26 56.9796 2308.65 54.3447C2313.15 51.7098 2316.66 48.1966 2319.19 43.8051C2321.71 39.3038 2322.98 34.4183 2322.98 29.1485C2322.98 23.6591 2321.71 18.7187 2319.19 14.3272C2316.66 9.93575 2313.15 6.47745 2308.65 3.95234C2304.26 1.31745 2299.21 0 2293.5 0C2287.9 0 2282.85 1.31745 2278.35 3.95234C2273.85 6.47745 2270.28 9.93575 2267.64 14.3272C2265.12 18.7187 2263.86 23.6591 2263.86 29.1485ZM2281.64 29.1485C2281.64 26.843 2282.13 24.757 2283.12 22.8906C2284.11 21.0243 2285.48 19.5421 2287.24 18.4443C2289 17.2366 2291.08 16.6328 2293.5 16.6328C2295.91 16.6328 2297.94 17.2366 2299.59 18.4443C2301.35 19.5421 2302.72 21.0243 2303.71 22.8906C2304.7 24.757 2305.19 26.843 2305.19 29.1485C2305.19 31.3442 2304.7 33.4302 2303.71 35.4064C2302.72 37.2728 2301.35 38.7549 2299.59 39.8528C2297.94 40.9506 2295.91 41.4996 2293.5 41.4996C2291.08 41.4996 2289 40.9506 2287.24 39.8528C2285.48 38.7549 2284.11 37.2728 2283.12 35.4064C2282.13 33.4302 2281.64 31.3442 2281.64 29.1485ZM2338.78 91.3979C2338.78 96.7774 2340.05 101.663 2342.57 106.054C2345.21 110.446 2348.78 113.959 2353.28 116.594C2357.78 119.229 2362.83 120.546 2368.43 120.546C2374.14 120.546 2379.19 119.229 2383.58 116.594C2388.08 113.959 2391.59 110.446 2394.12 106.054C2396.64 101.663 2397.91 96.7774 2397.91 91.3979C2397.91 86.0183 2396.64 81.1328 2394.12 76.7413C2391.59 72.24 2388.08 68.7268 2383.58 66.2017C2379.19 63.5668 2374.14 62.2494 2368.43 62.2494C2362.83 62.2494 2357.78 63.5668 2353.28 66.2017C2348.78 68.7268 2345.21 72.24 2342.57 76.7413C2340.05 81.1328 2338.78 86.0183 2338.78 91.3979ZM2356.57 91.3979C2356.57 89.0923 2357.06 87.0064 2358.05 85.14C2359.04 83.2736 2360.41 81.7915 2362.17 80.6936C2363.93 79.5957 2366.01 79.0468 2368.43 79.0468C2370.84 79.0468 2372.87 79.5957 2374.52 80.6936C2376.28 81.7915 2377.65 83.2736 2378.64 85.14C2379.63 87.0064 2380.12 89.0923 2380.12 91.3979C2380.12 93.5936 2379.63 95.6796 2378.64 97.6558C2377.65 99.5221 2376.28 101.004 2374.52 102.102C2372.87 103.2 2370.84 103.749 2368.43 103.749C2366.01 103.749 2363.93 103.2 2362.17 102.102C2360.41 101.004 2359.04 99.5221 2358.05 97.6558C2357.06 95.6796 2356.57 93.5936 2356.57 91.3979ZM2362.17 2.63489L2278.18 117.911H2299.76L2383.74 2.63489H2362.17Z" fill="white" fill-opacity="0.08"/>
<path d="M2406.66 29.1485C2406.66 34.4183 2407.93 39.3038 2410.45 43.8051C2413.09 48.1966 2416.65 51.7098 2421.16 54.3447C2425.66 56.9796 2430.71 58.297 2436.31 58.297C2442.02 58.297 2447.07 56.9796 2451.46 54.3447C2455.96 51.7098 2459.47 48.1966 2462 43.8051C2464.52 39.3038 2465.78 34.4183 2465.78 29.1485C2465.78 23.6591 2464.52 18.7187 2462 14.3272C2459.47 9.93575 2455.96 6.47745 2451.46 3.95234C2447.07 1.31745 2442.02 0 2436.31 0C2430.71 0 2425.66 1.31745 2421.16 3.95234C2416.65 6.47745 2413.09 9.93575 2410.45 14.3272C2407.93 18.7187 2406.66 23.6591 2406.66 29.1485ZM2424.45 29.1485C2424.45 26.843 2424.94 24.757 2425.93 22.8906C2426.92 21.0243 2428.29 19.5421 2430.05 18.4443C2431.81 17.2366 2433.89 16.6328 2436.31 16.6328C2438.72 16.6328 2440.75 17.2366 2442.4 18.4443C2444.16 19.5421 2445.53 21.0243 2446.52 22.8906C2447.51 24.757 2448 26.843 2448 29.1485C2448 31.3442 2447.51 33.4302 2446.52 35.4064C2445.53 37.2728 2444.16 38.7549 2442.4 39.8528C2440.75 40.9506 2438.72 41.4996 2436.31 41.4996C2433.89 41.4996 2431.81 40.9506 2430.05 39.8528C2428.29 38.7549 2426.92 37.2728 2425.93 35.4064C2424.94 33.4302 2424.45 31.3442 2424.45 29.1485ZM2481.59 91.3979C2481.59 96.7774 2482.86 101.663 2485.38 106.054C2488.02 110.446 2491.58 113.959 2496.09 116.594C2500.59 119.229 2505.64 120.546 2511.24 120.546C2516.95 120.546 2522 119.229 2526.39 116.594C2530.89 113.959 2534.4 110.446 2536.93 106.054C2539.45 101.663 2540.71 96.7774 2540.71 91.3979C2540.71 86.0183 2539.45 81.1328 2536.93 76.7413C2534.4 72.24 2530.89 68.7268 2526.39 66.2017C2522 63.5668 2516.95 62.2494 2511.24 62.2494C2505.64 62.2494 2500.59 63.5668 2496.09 66.2017C2491.58 68.7268 2488.02 72.24 2485.38 76.7413C2482.86 81.1328 2481.59 86.0183 2481.59 91.3979ZM2499.38 91.3979C2499.38 89.0923 2499.87 87.0064 2500.86 85.14C2501.85 83.2736 2503.22 81.7915 2504.98 80.6936C2506.74 79.5957 2508.82 79.0468 2511.24 79.0468C2513.65 79.0468 2515.68 79.5957 2517.33 80.6936C2519.09 81.7915 2520.46 83.2736 2521.45 85.14C2522.43 87.0064 2522.93 89.0923 2522.93 91.3979C2522.93 93.5936 2522.43 95.6796 2521.45 97.6558C2520.46 99.5221 2519.09 101.004 2517.33 102.102C2515.68 103.2 2513.65 103.749 2511.24 103.749C2508.82 103.749 2506.74 103.2 2504.98 102.102C2503.22 101.004 2501.85 99.5221 2500.86 97.6558C2499.87 95.6796 2499.38 93.5936 2499.38 91.3979ZM2504.98 2.63489L2420.99 117.911H2442.56L2526.55 2.63489H2504.98Z" fill="white" fill-opacity="0.08"/>
<path d="M2549.47 29.1485C2549.47 34.4183 2550.74 39.3038 2553.26 43.8051C2555.9 48.1966 2559.46 51.7098 2563.97 54.3447C2568.47 56.9796 2573.52 58.297 2579.12 58.297C2584.82 58.297 2589.88 56.9796 2594.27 54.3447C2598.77 51.7098 2602.28 48.1966 2604.81 43.8051C2607.33 39.3038 2608.59 34.4183 2608.59 29.1485C2608.59 23.6591 2607.33 18.7187 2604.81 14.3272C2602.28 9.93575 2598.77 6.47745 2594.27 3.95234C2589.88 1.31745 2584.82 0 2579.12 0C2573.52 0 2568.47 1.31745 2563.97 3.95234C2559.46 6.47745 2555.9 9.93575 2553.26 14.3272C2550.74 18.7187 2549.47 23.6591 2549.47 29.1485ZM2567.26 29.1485C2567.26 26.843 2567.75 24.757 2568.74 22.8906C2569.73 21.0243 2571.1 19.5421 2572.86 18.4443C2574.61 17.2366 2576.7 16.6328 2579.12 16.6328C2581.53 16.6328 2583.56 17.2366 2585.21 18.4443C2586.97 19.5421 2588.34 21.0243 2589.33 22.8906C2590.31 24.757 2590.81 26.843 2590.81 29.1485C2590.81 31.3442 2590.31 33.4302 2589.33 35.4064C2588.34 37.2728 2586.97 38.7549 2585.21 39.8528C2583.56 40.9506 2581.53 41.4996 2579.12 41.4996C2576.7 41.4996 2574.61 40.9506 2572.86 39.8528C2571.1 38.7549 2569.73 37.2728 2568.74 35.4064C2567.75 33.4302 2567.26 31.3442 2567.26 29.1485ZM2624.4 91.3979C2624.4 96.7774 2625.67 101.663 2628.19 106.054C2630.83 110.446 2634.39 113.959 2638.9 116.594C2643.4 119.229 2648.45 120.546 2654.05 120.546C2659.75 120.546 2664.8 119.229 2669.2 116.594C2673.7 113.959 2677.21 110.446 2679.74 106.054C2682.26 101.663 2683.52 96.7774 2683.52 91.3979C2683.52 86.0183 2682.26 81.1328 2679.74 76.7413C2677.21 72.24 2673.7 68.7268 2669.2 66.2017C2664.8 63.5668 2659.75 62.2494 2654.05 62.2494C2648.45 62.2494 2643.4 63.5668 2638.9 66.2017C2634.39 68.7268 2630.83 72.24 2628.19 76.7413C2625.67 81.1328 2624.4 86.0183 2624.4 91.3979ZM2642.19 91.3979C2642.19 89.0923 2642.68 87.0064 2643.67 85.14C2644.66 83.2736 2646.03 81.7915 2647.79 80.6936C2649.54 79.5957 2651.63 79.0468 2654.05 79.0468C2656.46 79.0468 2658.49 79.5957 2660.14 80.6936C2661.9 81.7915 2663.27 83.2736 2664.26 85.14C2665.24 87.0064 2665.74 89.0923 2665.74 91.3979C2665.74 93.5936 2665.24 95.6796 2664.26 97.6558C2663.27 99.5221 2661.9 101.004 2660.14 102.102C2658.49 103.2 2656.46 103.749 2654.05 103.749C2651.63 103.749 2649.54 103.2 2647.79 102.102C2646.03 101.004 2644.66 99.5221 2643.67 97.6558C2642.68 95.6796 2642.19 93.5936 2642.19 91.3979ZM2647.79 2.63489L2563.8 117.911H2585.37L2669.36 2.63489H2647.79Z" fill="white" fill-opacity="0.08"/>
<path d="M2692.28 29.1485C2692.28 34.4183 2693.55 39.3038 2696.07 43.8051C2698.71 48.1966 2702.27 51.7098 2706.77 54.3447C2711.28 56.9796 2716.33 58.297 2721.93 58.297C2727.63 58.297 2732.68 56.9796 2737.08 54.3447C2741.58 51.7098 2745.09 48.1966 2747.62 43.8051C2750.14 39.3038 2751.4 34.4183 2751.4 29.1485C2751.4 23.6591 2750.14 18.7187 2747.62 14.3272C2745.09 9.93575 2741.58 6.47745 2737.08 3.95234C2732.68 1.31745 2727.63 0 2721.93 0C2716.33 0 2711.28 1.31745 2706.77 3.95234C2702.27 6.47745 2698.71 9.93575 2696.07 14.3272C2693.55 18.7187 2692.28 23.6591 2692.28 29.1485ZM2710.07 29.1485C2710.07 26.843 2710.56 24.757 2711.55 22.8906C2712.54 21.0243 2713.91 19.5421 2715.67 18.4443C2717.42 17.2366 2719.51 16.6328 2721.93 16.6328C2724.34 16.6328 2726.37 17.2366 2728.02 18.4443C2729.77 19.5421 2731.15 21.0243 2732.14 22.8906C2733.12 24.757 2733.62 26.843 2733.62 29.1485C2733.62 31.3442 2733.12 33.4302 2732.14 35.4064C2731.15 37.2728 2729.77 38.7549 2728.02 39.8528C2726.37 40.9506 2724.34 41.4996 2721.93 41.4996C2719.51 41.4996 2717.42 40.9506 2715.67 39.8528C2713.91 38.7549 2712.54 37.2728 2711.55 35.4064C2710.56 33.4302 2710.07 31.3442 2710.07 29.1485ZM2767.21 91.3979C2767.21 96.7774 2768.47 101.663 2771 106.054C2773.63 110.446 2777.2 113.959 2781.7 116.594C2786.21 119.229 2791.26 120.546 2796.85 120.546C2802.56 120.546 2807.61 119.229 2812.01 116.594C2816.51 113.959 2820.02 110.446 2822.55 106.054C2825.07 101.663 2826.33 96.7774 2826.33 91.3979C2826.33 86.0183 2825.07 81.1328 2822.55 76.7413C2820.02 72.24 2816.51 68.7268 2812.01 66.2017C2807.61 63.5668 2802.56 62.2494 2796.85 62.2494C2791.26 62.2494 2786.21 63.5668 2781.7 66.2017C2777.2 68.7268 2773.63 72.24 2771 76.7413C2768.47 81.1328 2767.21 86.0183 2767.21 91.3979ZM2785 91.3979C2785 89.0923 2785.49 87.0064 2786.48 85.14C2787.47 83.2736 2788.84 81.7915 2790.6 80.6936C2792.35 79.5957 2794.44 79.0468 2796.85 79.0468C2799.27 79.0468 2801.3 79.5957 2802.95 80.6936C2804.7 81.7915 2806.08 83.2736 2807.07 85.14C2808.05 87.0064 2808.55 89.0923 2808.55 91.3979C2808.55 93.5936 2808.05 95.6796 2807.07 97.6558C2806.08 99.5221 2804.7 101.004 2802.95 102.102C2801.3 103.2 2799.27 103.749 2796.85 103.749C2794.44 103.749 2792.35 103.2 2790.6 102.102C2788.84 101.004 2787.47 99.5221 2786.48 97.6558C2785.49 95.6796 2785 93.5936 2785 91.3979ZM2790.6 2.63489L2706.61 117.911H2728.18L2812.17 2.63489H2790.6Z" fill="white" fill-opacity="0.08"/>
</svg>
